HIERARCHY
ROOT Hips
{
    OFFSET 0.000000 0.000000 0.000000
    CHANNELS 6 Xposition Yposition Zposition Zrotation Xrotation Yrotation
    JOINT Spine
    {
        OFFSET -0.000000 7.856138 0.000000
        CHANNELS 3 Zrotation Xrotation Yrotation
        JOINT Spine1
        {
            OFFSET -0.000000 20.830866 0.000000
            CHANNELS 3 Zrotation Xrotation Yrotation
            JOINT Neck
            {
                OFFSET -0.000000 20.745317 1.885938
                CHANNELS 3 Zrotation Xrotation Yrotation
                JOINT Head
                {
                    OFFSET -0.000000 13.412918 -1.916131
                    CHANNELS 3 Zrotation Xrotation Yrotation
                    End Site
                    {
                        OFFSET -0.000000 23.951641 0.000000
                    }
                }
            }
            JOINT LeftShoulder
            {
                OFFSET 3.826675 19.078362 -0.073511
                CHANNELS 3 Zrotation Xrotation Yrotation
                JOINT LeftArm
                {
                    OFFSET 10.442133 0.000000 0.000000
                    CHANNELS 3 Zrotation Xrotation Yrotation
                    JOINT LeftForeArm
                    {
                        OFFSET 37.051945 0.000000 0.000000
                        CHANNELS 3 Zrotation Xrotation Yrotation
                        JOINT LeftHand
                        {
                            OFFSET 24.394852 0.000000 0.000000
                            CHANNELS 3 Zrotation Xrotation Yrotation
                            End Site
                            {
                                OFFSET 14.370985 0.000000 0.000000
                            }
                        }
                    }
                }
            }
            JOINT RightShoulder
            {
                OFFSET -3.827599 19.078362 -0.073511
                CHANNELS 3 Zrotation Xrotation Yrotation
                JOINT RightArm
                {
                    OFFSET -10.442133 0.000000 0.000000
                    CHANNELS 3 Zrotation Xrotation Yrotation
                    JOINT RightForeArm
                    {
                        OFFSET -37.051945 0.000000 0.000000
                        CHANNELS 3 Zrotation Xrotation Yrotation
                        JOINT RightHand
                        {
                            OFFSET -24.394852 0.000000 0.000000
                            CHANNELS 3 Zrotation Xrotation Yrotation
                            End Site
                            {
                                OFFSET -14.370985 0.000000 0.000000
                            }
                        }
                    }
                }
            }
        }
    }
    JOINT LeftUpLeg
    {
        OFFSET 9.580656 0.000000 0.000000
        CHANNELS 3 Zrotation Xrotation Yrotation
        JOINT LeftLeg
        {
            OFFSET -0.000000 -43.769192 0.000000
            CHANNELS 3 Zrotation Xrotation Yrotation
            JOINT LeftFoot
            {
                OFFSET -0.000000 -42.531967 0.000000
                CHANNELS 3 Zrotation Xrotation Yrotation
                JOINT LeftToeBase
                {
                    OFFSET -0.000000 -6.227426 14.370985
                    CHANNELS 3 Zrotation Xrotation Yrotation
                    End Site
                    {
                        OFFSET -0.000000 0.000000 3.832262
                    }
                }
            }
        }
    }
    JOINT RightUpLeg
    {
        OFFSET -9.580656 0.000000 0.000000
        CHANNELS 3 Zrotation Xrotation Yrotation
        JOINT RightLeg
        {
            OFFSET -0.000000 -43.769192 0.000000
            CHANNELS 3 Zrotation Xrotation Yrotation
            JOINT RightFoot
            {
                OFFSET -0.000000 -42.531967 0.000000
                CHANNELS 3 Zrotation Xrotation Yrotation
                JOINT RightToeBase
                {
                    OFFSET -0.000000 -6.227426 14.370985
                    CHANNELS 3 Zrotation Xrotation Yrotation
                    End Site
                    {
                        OFFSET -0.000000 0.000000 3.832262
                    }
                }
            }
        }
    }
}
MOTION
Frames:    9
Frame Time:    0.008333
-215.338135    93.296898    22.652266    -0.726283    -1.492581    87.882988    0.978293    -7.440696    0.504301    2.781000    6.987453    0.270982    -0.693197    2.428026    -2.891515    5.723429    0.897793    -2.148307    12.415092    -1.276296    6.980296    -12.416324    8.725537    -12.105243    6.821020    -4.396406    -1.179707    3.526988    -4.312006    0.466009    -18.003920    0.804814    -2.727698    20.878847    4.258325    2.963778    -4.559176    -2.451909    2.360764    -10.412457    -1.803028    -6.089154    6.596161    6.846547    -0.143621    -3.363437    0.356796    0.610798    5.162827    -8.346733    17.797091    0.000000    0.000000    0.000000    -0.070454    1.868071    2.045409    3.057658    5.509529    -0.959774    -2.832961    -9.853869    -14.672004    0.000000    0.000000    0.000000    
-215.351242    93.296501    22.632610    -0.725591    -1.487785    87.899002    0.944654    -7.441095    0.512105    2.820145    6.997855    0.278292    -0.746789    2.421029    -2.937310    5.820451    0.969564    -2.179601    12.424292    -1.275692    6.937490    -12.437656    8.704692    -12.103499    6.857336    -4.460439    -1.181162    3.468746    -4.373018    0.558558    -17.937353    0.882780    -2.765464    20.763323    4.270113    3.014262    -4.373074    -2.804060    2.543431    -12.043034    -1.997469    -6.724780    6.579779    6.830245    -0.138916    -3.361245    0.368156    0.590618    5.173567    -8.358400    17.799131    0.000000    0.000000    0.000000    -0.091903    1.850707    2.038466    3.069412    5.536262    -0.915223    -2.880610    -9.864563    -14.704539    0.000000    0.000000    0.000000    
-215.368790    93.291809    22.622240    -0.727242    -1.513215    87.939400    0.925479    -7.450873    0.497493    2.882100    7.040767    0.259929    -0.833736    2.382606    -2.981611    5.933683    1.051116    -2.203322    12.410915    -1.297240    6.950304    -12.424649    8.706231    -12.137099    6.857425    -4.463316    -1.186255    3.451628    -4.375263    0.572211    -18.049469    0.797790    -2.824310    20.838461    4.331474    3.078135    -4.469983    -2.685540    2.453525    -11.561013    -1.933279    -6.484091    6.612496    6.801189    -0.113818    -3.373389    0.393597    0.494150    5.243464    -8.379646    17.816404    0.000000    0.000000    0.000000    -0.063459    1.831141    1.987803    3.052119    5.560608    -0.970821    -2.832217    -9.890468    -14.661533    0.000000    0.000000    0.000000    
-215.382416    93.291107    22.605106    -0.723347    -1.511624    87.961288    0.902356    -7.448799    0.494743    2.903613    7.043863    0.257361    -0.506009    2.335222    -2.968660    5.346759    1.124415    -2.313419    12.400252    -1.290070    6.929377    -12.408444    8.711164    -12.150212    6.830340    -4.343147    -1.194366    3.485990    -4.256949    0.499483    -18.091742    0.820953    -2.766577    20.883278    4.301864    3.031772    -4.547367    -2.690312    2.499196    -10.916205    -1.983666    -6.356666    6.606274    6.785655    -0.097834    -3.381165    0.411875    0.447210    5.269431    -8.390319    17.834732    0.000000    0.000000    0.000000    -0.075779    1.817581    1.987347    3.058634    5.578799    -0.995675    -2.842640    -9.891622    -14.651705    0.000000    0.000000    0.000000    
-215.388443    93.295006    22.580233    -0.728025    -1.487822    87.955757    0.858522    -7.478559    0.515177    2.926392    7.076093    0.278152    -0.444868    2.338191    -2.994682    5.252607    1.162933    -2.362653    12.420153    -1.314848    6.889173    -12.413412    8.805720    -12.156263    6.850688    -4.345836    -1.197098    3.438441    -4.259481    0.499465    -18.093197    0.772077    -2.870737    20.858347    4.395834    3.132150    -4.553293    -2.681140    2.498698    -10.925125    -1.971606    -6.380287    6.555422    6.781641    -0.096249    -3.357835    0.402400    0.459467    5.194332    -8.389774    17.815243    0.000000    0.000000    0.000000    -0.115586    1.801699    1.981679    3.059524    5.587007    -1.023025    -2.805137    -9.904980    -14.630657    0.000000    0.000000    0.000000    
-215.413712    93.289101    22.567404    -0.729010    -1.513060    87.972038    0.891597    -7.422085    0.506662    2.887904    7.001170    0.272304    -0.472523    2.352839    -3.023165    5.331350    1.247321    -2.382221    12.428683    -1.299051    6.901678    -12.376861    8.863673    -12.175127    6.752936    -4.062857    -1.219948    3.543037    -3.981221    0.320703    -18.081003    0.792969    -2.842750    20.868547    4.390406    3.160915    -4.573674    -2.694706    2.514456    -10.911573    -1.982433    -6.405425    6.581441    6.748134    -0.065924    -3.370593    0.436734    0.398445    5.287243    -8.411261    17.831781    0.000000    0.000000    0.000000    -0.098864    1.776203    1.947891    3.056235    5.615288    -0.968777    -2.858365    -9.895608    -14.655781    0.000000    0.000000    0.000000    
-215.417664    93.291626    22.543673    -0.731523    -1.478278    87.948273    0.859080    -7.444475    0.524869    2.875306    7.021817    0.292675    -0.516889    2.327976    -3.058992    5.420279    1.347159    -2.406690    12.340495    -1.203651    6.865535    -12.242195    8.832845    -12.169260    6.733030    -4.071341    -1.277566    3.456265    -3.985303    0.369325    -18.091282    0.793233    -2.829806    20.880484    4.397787    3.163454    -4.583739    -2.701411    2.540973    -10.880067    -1.990924    -6.391888    6.522220    6.757008    -0.067367    -3.357820    0.420715    0.382076    5.225033    -8.403426    17.865475    0.000000    0.000000    0.000000    -0.153402    1.754146    1.962298    3.064684    5.635951    -1.046021    -2.829552    -9.917630    -14.565223    0.000000    0.000000    0.000000    
-215.428253    93.290787    22.528299    -0.724240    -1.477234    87.962318    0.846289    -7.411803    0.530630    2.866092    6.968866    0.301426    -0.538368    2.328919    -3.084462    5.494682    1.442294    -2.425171    12.346039    -1.186319    6.831225    -12.216621    8.916743    -12.166643    6.752954    -4.122134    -1.313788    3.400061    -4.033509    0.383791    -18.066507    0.791538    -2.853819    20.866695    4.415233    3.194367    -4.547152    -2.712960    2.574937    -11.489058    -1.953392    -6.532864    6.512753    6.752654    -0.072396    -3.357251    0.426789    0.378158    5.302600    -8.409086    17.854643    0.000000    0.000000    0.000000    -0.158234    1.745505    1.944844    3.055192    5.659820    -1.039935    -2.799100    -9.942615    -14.572828    0.000000    0.000000    0.000000    
-215.436523    93.289635    22.509413    -0.717932    -1.475625    87.960785    0.856700    -7.402604    0.542820    2.801552    6.955213    0.317257    -0.499956    2.298879    -3.112655    5.523452    1.560338    -2.461164    12.410588    -1.181105    6.825143    -12.218464    8.949588    -12.190398    6.745546    -4.143970    -1.337518    3.407196    -4.053700    0.393866    -18.008734    0.760303    -2.880496    20.848186    4.449306    3.237784    -4.520673    -2.824055    2.640495    -11.330520    -2.070164    -6.548437    6.502481    6.757414    -0.049935    -3.366301    0.419804    0.345895    5.094798    -8.505370    17.962318    0.000000    0.000000    0.000000    -0.171380    1.727607    1.905635    3.058162    5.706846    -1.005795    -2.803983    -9.963103    -14.590567    0.000000    0.000000    0.000000    
